{"title":"Through.the.Wormhole.S04E08.Is.Reality.Real.1080p.WEBRIP.x264-Mc","uid":8709158,"size":2203443775,"categoryP":"video","categoryS":"hd___tv_shows","magnet":"?xt=urn:btih:f1be1d0005bdc7c88c6e608d96a73d5130ac95df&amp;dn=Through.the.Wormhole.S04E08.Is.Reality.Real.1080p.WEBRIP.x264-Mc&amp;tr=udp%3A%2F%2Ftracker.openbittorrent.com%3A80&amp;tr=udp%3A%2F%2Fopen.demonii.com%3A1337&amp;tr=udp%3A%2F%2Ftracker.coppersurfer.tk%3A6969&amp;tr=udp%3A%2F%2Fexodus.desync.com%3A6969","seeders":0,"leechers":1,"uploader":"McTaco","files":-1,"time":1374198850,"description":"Through the Wormhole S04E08 Is Reality real 1080p McTaco\nEnjoy Webrip\n\n\n\nINFO:\n================================================================================\nGeneral\nUnique ID                                : 250325313047332094685638305601383574518 (0xBC52E6D0CDD492A89CF481044DF02BF6)\nComplete name                            : C:UsersAndrewDownloadsThrough.the.Wormhole.S04E08.Is.Reality.Real.720p.HDTV.x264-DHD[rarbg]Through.the.Wormhole.S04E08.Is.Reality.Real.1080p.WEBRIP.x264-McTacoThrough.the.Wormhole.S04E08.Is.Reality.Real.1080p.WEBRIP.x264-McTaco .mkv\nFormat                                   : Matroska\nFormat version                           : Version 4 / Version 2\nFile size                                : 2.05 GiB\nDuration                                 : 42mn 46s\nOverall bit rate                         : 6 869 Kbps\nEncoded date                             : UTC 2013-07-18 23:30:35\nWriting application                      : mkvmerge v6.2.0 ('Promised Land') built on Apr 28 2013 12:22:01\nWriting library                          : libebml v1.3.0 + libmatroska v1.4.0\n\nVideo\nID                                       : 1\nFormat                                   : AVC\nFormat/Info                              : Advanced Video Codec\nFormat profile                           : &lt;a class=&quot;__cf_email__&quot; href=&quot;/cdn-cgi/l/email-protection&quot; data-cfemail=&quot;d098b9b7b8909ce4fee0&quot;&gt;[email&amp;#160;protected]&lt;/a&gt;&lt;script cf-hash='f9e31' type=&quot;text/javascript&quot;&gt;\n/* &lt;![CDATA[ */!function(){try{var t=&quot;currentScript&quot;in document?document.currentScript:function(){for(var t=document.getElementsByTagName(&quot;script&quot;),e=t.length;e--;)if(t[e].getAttribute(&quot;cf-hash&quot;))return t[e]}();if(t&amp;&amp;t.previousSibling){var e,r,n,i,c=t.previousSibling,a=c.getAttribute(&quot;data-cfemail&quot;);if(a){for(e=&quot;&quot;,r=parseInt(a.substr(0,2),16),n=2;a.length-n;n+=2)i=parseInt(a.substr(n,2),16)^r,e+=String.fromCharCode(i);e=document.createTextNode(e),c.parentNode.replaceChild(e,c)}}}catch(u){}}();/* ]]&gt; */&lt;/script&gt;\nFormat settings, CABAC                   : Yes\nFormat settings, ReFrames                : 3 frames\nCodec ID                                 : V_MPEG4/ISO/AVC\nDuration                                 : 42mn 46s\nBit rate                                 : 6 349 Kbps\nWidth                                    : 1 920 pixels\nHeight                                   : 1 080 pixels\nDisplay aspect ratio                     : 16:9\nFrame rate mode                          : Constant\nFrame rate                               : 23.810 fps\nOriginal frame rate                      : 25.000 fps\nColor space                              : YUV\nChroma subsampling                       : 4:2:0\nBit depth                                : 8 bits\nScan type                                : Progressive\nBits/(Pixel*Frame)                       : 0.129\nStream size                              : 1.90 GiB (92%)\nWriting library                          : x264 core 130 r2274bm c832fe9\nEncoding settings                        : cabac=1 / ref=3 / deblock=1:0:0 / analyse=0x3:0x113 / me=hex / subme=7 / psy=1 / psy_rd=1.00:0.00 / mixed_ref=1 / me_range=16 / chroma_me=1 / trellis=1 / 8x8dct=1 / cqm=0 / deadzone=21,11 / fast_pskip=1 / chroma_qp_offset=-2 / threads=8 / lookahead_threads=8 / sliced_threads=1 / slices=8 / nr=0 / decimate=1 / interlaced=0 / bluray_compat=0 / constrained_intra=0 / bframes=0 / weightp=2 / keyint=250 / keyint_min=25 / scenecut=40 / intra_refresh=0 / rc=cqp / mbtree=0 / qp=20 / ip_ratio=1.40 / aq=0\nDefault                                  : Yes\nForced                                   : No\n\nAudio\nID                                       : 2\nFormat                                   : AC-3\nFormat/Info                              : Audio Coding 3\nMode extension                           : CM (complete main)\nFormat settings, Endianness              : Big\nCodec ID                                 : A_AC3\nDuration                                 : 42mn 46s\nBit rate mode                            : Constant\nBit rate                                 : 384 Kbps\nChannel(s)                               : 6 channels\nChannel positions                        : Front: L C R, Side: L R, LFE\nSampling rate                            : 48.0 KHz\nBit depth                                : 16 bits\nCompression mode                         : Lossy\nStream size                              : 117 MiB (6%)\nDefault                                  : Yes\nForced                                   : No\n\n","torrent":{"xt":"urn:btih:f1be1d0005bdc7c88c6e608d96a73d5130ac95df","amp;dn":"Through.the.Wormhole.S04E08.Is.Reality.Real.1080p.WEBRIP.x264-Mc","amp;tr":["udp%3A%2F%2Ftracker.openbittorrent.com%3A80","udp%3A%2F%2Fopen.demonii.com%3A1337","udp%3A%2F%2Ftracker.coppersurfer.tk%3A6969","udp%3A%2F%2Fexodus.desync.com%3A6969"],"infoHash":"f1be1d0005bdc7c88c6e608d96a73d5130ac95df","infoHashBuffer":{"type":"Buffer","data":[241,190,29,0,5,189,199,200,140,110,96,141,150,167,61,81,48,172,149,223]},"announce":[],"urlList":[]}}